<mxfile host="Electron" modified="2024-06-21T09:02:14.043Z" agent="Mozilla/5.0 (Windows NT 10.0; Win64; x64) AppleWebKit/537.36 (KHTML, like Gecko) draw.io/24.1.0 Chrome/120.0.6099.109 Electron/28.1.0 Safari/537.36" etag="ZtSApw34QGJdex_e6qIc" version="24.1.0" type="device">
  <diagram name="Page-1" id="yEn8RV9Q0E3mqBJVXRx7">
    <mxGraphModel dx="1500" dy="899" grid="1" gridSize="10" guides="1" tooltips="1" connect="1" arrows="1" fold="1" page="1" pageScale="1" pageWidth="1169" pageHeight="827" math="0" shadow="0">
      <root>
        <mxCell id="0" />
        <mxCell id="1" parent="0" />
        <mxCell id="567_v8cm4M6xdCc4lQUY-1" value="Server&lt;div&gt;Python Flask server&lt;/div&gt;&lt;div&gt;Pathfinding&lt;/div&gt;" style="rounded=0;whiteSpace=wrap;html=1;" vertex="1" parent="1">
          <mxGeometry x="280" y="200" width="160" height="80" as="geometry" />
        </mxCell>
        <mxCell id="567_v8cm4M6xdCc4lQUY-9" style="edgeStyle=orthogonalEdgeStyle;rounded=0;orthogonalLoop=1;jettySize=auto;html=1;entryX=0;entryY=0.5;entryDx=0;entryDy=0;startArrow=classic;startFill=1;" edge="1" parent="1" source="567_v8cm4M6xdCc4lQUY-4" target="567_v8cm4M6xdCc4lQUY-1">
          <mxGeometry relative="1" as="geometry" />
        </mxCell>
        <mxCell id="567_v8cm4M6xdCc4lQUY-4" value="Simulation&lt;div&gt;Webots&lt;/div&gt;" style="rounded=0;whiteSpace=wrap;html=1;" vertex="1" parent="1">
          <mxGeometry x="40" y="200" width="160" height="80" as="geometry" />
        </mxCell>
        <mxCell id="567_v8cm4M6xdCc4lQUY-10" style="edgeStyle=orthogonalEdgeStyle;rounded=0;orthogonalLoop=1;jettySize=auto;html=1;entryX=0.5;entryY=0;entryDx=0;entryDy=0;" edge="1" parent="1" source="567_v8cm4M6xdCc4lQUY-5" target="567_v8cm4M6xdCc4lQUY-1">
          <mxGeometry relative="1" as="geometry" />
        </mxCell>
        <mxCell id="567_v8cm4M6xdCc4lQUY-16" style="edgeStyle=orthogonalEdgeStyle;rounded=0;orthogonalLoop=1;jettySize=auto;html=1;entryX=0.5;entryY=0;entryDx=0;entryDy=0;shape=flexArrow;" edge="1" parent="1" source="567_v8cm4M6xdCc4lQUY-5" target="567_v8cm4M6xdCc4lQUY-15">
          <mxGeometry relative="1" as="geometry" />
        </mxCell>
        <mxCell id="567_v8cm4M6xdCc4lQUY-5" value="Camera&lt;div&gt;Robot tracking&lt;/div&gt;&lt;div&gt;Color detection&lt;/div&gt;" style="rounded=0;whiteSpace=wrap;html=1;" vertex="1" parent="1">
          <mxGeometry x="280" y="40" width="160" height="80" as="geometry" />
        </mxCell>
        <mxCell id="567_v8cm4M6xdCc4lQUY-6" value="Robot" style="shape=cylinder3;whiteSpace=wrap;html=1;boundedLbl=1;backgroundOutline=1;size=15;" vertex="1" parent="1">
          <mxGeometry x="560" y="250" width="80" height="60" as="geometry" />
        </mxCell>
        <mxCell id="567_v8cm4M6xdCc4lQUY-7" value="Robot" style="shape=cylinder3;whiteSpace=wrap;html=1;boundedLbl=1;backgroundOutline=1;size=15;" vertex="1" parent="1">
          <mxGeometry x="560" y="170" width="80" height="60" as="geometry" />
        </mxCell>
        <mxCell id="567_v8cm4M6xdCc4lQUY-12" style="edgeStyle=orthogonalEdgeStyle;rounded=0;orthogonalLoop=1;jettySize=auto;html=1;entryX=0;entryY=0.5;entryDx=0;entryDy=0;entryPerimeter=0;" edge="1" parent="1" source="567_v8cm4M6xdCc4lQUY-1" target="567_v8cm4M6xdCc4lQUY-6">
          <mxGeometry relative="1" as="geometry" />
        </mxCell>
        <mxCell id="567_v8cm4M6xdCc4lQUY-13" style="edgeStyle=orthogonalEdgeStyle;rounded=0;orthogonalLoop=1;jettySize=auto;html=1;entryX=0;entryY=0.5;entryDx=0;entryDy=0;entryPerimeter=0;" edge="1" parent="1" source="567_v8cm4M6xdCc4lQUY-1" target="567_v8cm4M6xdCc4lQUY-7">
          <mxGeometry relative="1" as="geometry" />
        </mxCell>
        <mxCell id="567_v8cm4M6xdCc4lQUY-15" value="" style="swimlane;startSize=0;" vertex="1" parent="1">
          <mxGeometry x="520" y="160" width="160" height="160" as="geometry" />
        </mxCell>
      </root>
    </mxGraphModel>
  </diagram>
</mxfile>
